<svg xmlns="http://www.w3.org/2000/svg" viewBox="0 0 275.26 90.5">
  <g>
    <g>
      <path d="M8,87.7a3.59,3.59,0,0,1-3.74,2.77C1.45,90.47,0,88.27,0,85.54s1.44-5,4.31-5A3.44,3.44,0,0,1,8,83.39H7a2.65,2.65,0,0,0-2.77-2C2,81.41,1,83.49,1,85.53S2,89.61,4.32,89.61A2.67,2.67,0,0,0,7,87.7Z" fill="#fff"/>
      <path d="M10.85,80.69h1v8.8H17l-.15.87h-6Z" fill="#fff"/>
      <path d="M20.22,80.69v9.67h-1V80.69Z" fill="#fff"/>
      <path d="M32.14,86.07c0-1.86,0-3.67,0-4.67h0c-.4,1.43-2.19,5.91-3.37,9h-.91c-.89-2.41-2.73-7.42-3.17-9h0c.07,1.1.1,3.32.1,5v4h-1V80.69h1.48c1.22,3.18,2.75,7.3,3.09,8.45h0c.22-.8,2-5.36,3.25-8.45h1.45v9.67h-1Z" fill="#fff"/>
      <path d="M37.72,87.22l-1.15,3.14h-1l3.5-9.67h1.21l3.64,9.67H42.86l-1.17-3.14Zm3.68-.87c-1-2.73-1.54-4.09-1.73-4.78h0c-.24.77-.85,2.45-1.65,4.78Z" fill="#fff"/>
      <path d="M47.16,81.57H44v-.88h7.38v.88h-3.2v8.79h-1Z" fill="#fff"/>
      <path d="M59.46,85.71H54.59v3.78h5.35l-.14.87H53.6V80.69h6.1v.88H54.59v3.27h4.87Z" fill="#fff"/>
      <path d="M74.45,87.7a3.59,3.59,0,0,1-3.74,2.77c-2.82,0-4.28-2.2-4.28-4.93s1.44-5,4.31-5a3.44,3.44,0,0,1,3.71,2.83h-1a2.65,2.65,0,0,0-2.77-2c-2.29,0-3.23,2.08-3.23,4.12s.91,4.08,3.28,4.08a2.67,2.67,0,0,0,2.7-1.91Z" fill="#fff"/>
      <path d="M77.28,80.69h1v4.13h5.46V80.69h1v9.67h-1V85.69H78.26v4.67h-1Z" fill="#fff"/>
      <path d="M89.37,87.22l-1.15,3.14h-1l3.51-9.67h1.2l3.64,9.67H94.51l-1.17-3.14Zm3.68-.87c-1-2.73-1.53-4.09-1.73-4.78h0c-.24.77-.85,2.45-1.65,4.78Z" fill="#fff"/>
      <path d="M98,90.36V80.69h1.37c1.46,2.3,4.75,7.43,5.33,8.48h0c-.09-1.33-.07-2.8-.07-4.38v-4.1h1v9.67h-1.27c-1.37-2.17-4.75-7.59-5.4-8.67h0c.07,1.19.07,2.72.07,4.46v4.21Z" fill="#fff"/>
      <path d="M116.75,90.36H116a7.32,7.32,0,0,1-.09-1.44,3.19,3.19,0,0,1-3.08,1.57c-2.78,0-4.22-2.12-4.22-4.88s1.53-5,4.42-5c2.16,0,3.54,1.14,3.83,2.9h-1a2.71,2.71,0,0,0-2.88-2c-2.34,0-3.35,1.85-3.35,4.16,0,2.1,1,4,3.26,4s2.93-1.51,2.93-3.42v-.11h-3v-.87h3.9Z" fill="#fff"/>
      <path d="M125.88,85.71H121v3.78h5.34l-.14.87H120V80.69h6.1v.88H121v3.27h4.87Z" fill="#fff"/>
      <path d="M141.51,84.18l-2.43,3.67,2.55,2.51h-1.32l-1.77-1.74a3.56,3.56,0,0,1-3.12,1.88A2.51,2.51,0,0,1,132.81,88c0-1.13.51-1.89,2.13-2.91a3.19,3.19,0,0,1-1.21-2.27,2.2,2.2,0,0,1,2.32-2.25,2.11,2.11,0,0,1,2.2,2.16c0,1-.62,1.6-1.93,2.42l2.18,2.15,2-3.11ZM138,88.06l-2.48-2.45c-1.4.92-1.7,1.46-1.7,2.3a1.74,1.74,0,0,0,1.68,1.73C136.41,89.64,137.05,89.34,138,88.06Zm-3.32-5.27c0,.58.39,1.09,1.16,1.85,1.22-.82,1.54-1.2,1.54-1.91a1.35,1.35,0,1,0-2.7.06Z" fill="#fff"/>
      <path d="M157.07,86.07c0-1.86,0-3.67.06-4.67h0c-.4,1.43-2.19,5.91-3.37,9h-.91c-.89-2.41-2.73-7.42-3.17-9h0c.07,1.1.1,3.32.1,5v4h-1V80.69h1.48c1.22,3.18,2.74,7.3,3.09,8.45h0c.22-.8,2-5.36,3.25-8.45H158v9.67h-1Z" fill="#fff"/>
      <path d="M162.6,80.69v9.67h-1V80.69Z" fill="#fff"/>
      <path d="M173.71,90.36h-.79a6.94,6.94,0,0,1-.1-1.44,3.16,3.16,0,0,1-3.07,1.57c-2.79,0-4.23-2.12-4.23-4.88s1.54-5,4.42-5c2.16,0,3.55,1.14,3.84,2.9h-1a2.72,2.72,0,0,0-2.89-2c-2.34,0-3.35,1.85-3.35,4.16,0,2.1,1,4,3.27,4s2.92-1.51,2.92-3.42v-.11H169.8v-.87h3.91Z" fill="#fff"/>
      <path d="M178,86v4.4h-1V80.69h3.61c1.94,0,3,1.06,3,2.57a2.19,2.19,0,0,1-1.73,2.27c.9.22,1.58.84,1.58,2.51v.38a6.36,6.36,0,0,0,.12,1.94h-1a6.42,6.42,0,0,1-.16-2v-.22c0-1.5-.42-2.13-2.23-2.13Zm0-.86h2.23c1.59,0,2.31-.6,2.31-1.79s-.72-1.76-2.13-1.76H178Z" fill="#fff"/>
      <path d="M187.93,87.22l-1.15,3.14h-1l3.5-9.67h1.21l3.64,9.67h-1.07l-1.16-3.14Zm3.69-.87c-1-2.73-1.54-4.09-1.73-4.78h0c-.23.77-.84,2.45-1.64,4.78Z" fill="#fff"/>
      <path d="M197.38,81.57H194.2v-.88h7.38v.88h-3.2v8.79h-1Z" fill="#fff"/>
      <path d="M204.81,80.69v9.67h-1V80.69Z" fill="#fff"/>
      <path d="M216.55,85.46c0,2.66-1.45,5-4.46,5-2.78,0-4.36-2.2-4.36-5s1.56-5,4.46-5C214.88,80.56,216.55,82.62,216.55,85.46Zm-7.78,0c0,2.16,1.16,4.14,3.36,4.14,2.39,0,3.37-2,3.37-4.14s-1.11-4.06-3.35-4.06S208.77,83.35,208.77,85.49Z" fill="#fff"/>
      <path d="M219.45,90.36V80.69h1.37c1.45,2.3,4.75,7.43,5.33,8.48h0c-.08-1.33-.07-2.8-.07-4.38v-4.1h1v9.67h-1.27c-1.38-2.17-4.76-7.59-5.41-8.67h0c.07,1.19.07,2.72.07,4.46v4.21Z" fill="#fff"/>
    </g>
    <g>
      <path d="M5.43,1.46v24.9H.55V1.46Z" fill="#fff"/>
      <path d="M10.69,11.91c0-1.66,0-3.38,0-4.85h4.5a19.61,19.61,0,0,1,.19,2.7C16,8.41,17.6,6.61,21.09,6.61c3.79,0,6.42,2.48,6.42,7.44V26.36H22.85V14.57c0-2.4-.86-4.13-3.41-4.13-2.75,0-4.1,1.77-4.1,5.33V26.36H10.69Z" fill="#fff"/>
      <path d="M30.17,7.06h3.08V2.78h4.66V7.06h3.94v3.57H37.91V20.77c0,1.61.45,2.29,2.1,2.29A8.58,8.58,0,0,0,41.4,23v3.27a11.22,11.22,0,0,1-3.38.37c-3.49,0-4.77-1.87-4.77-5.18V10.63H30.17Z" fill="#fff"/>
      <path d="M48.46,17.69c0,2.89,1.46,5.4,4.35,5.4,2.48,0,3.27-1.12,3.79-2.36h4.7c-.72,2.4-2.82,6.08-8.64,6.08-6.23,0-8.9-4.81-8.9-9.84,0-6,3.05-10.36,9.13-10.36,6.49,0,8.67,4.84,8.67,9.42a12.63,12.63,0,0,1-.07,1.66Zm8.41-3c0-2.59-1.17-4.69-4-4.69s-4,2-4.28,4.69Z" fill="#fff"/>
      <path d="M65.5,12.28c0-2.18,0-3.79,0-5.22H70c.08.45.12,2.25.12,3.57.9-2.33,3-4,6.31-4v4.51c-3.91,0-6.31,1.35-6.31,6.49v8.75H65.5Z" fill="#fff"/>
      <path d="M96.59,0V21c0,1.8,0,3.57,0,5.37H92.12c-.07-.56-.19-1.73-.19-2.25-.93,1.69-2.7,2.7-5.7,2.7-4.88,0-8-3.94-8-9.91S81.53,6.61,87,6.61c3,0,4.47,1.13,5,2.07V0Zm-9,23c3.94,0,4.54-3.15,4.54-6.42,0-3.64-.6-6.2-4.39-6.2-3,0-4.65,2.37-4.65,6.35S84.76,23,87.54,23Z" fill="#fff"/>
      <path d="M101.62,4.54V0h4.66V4.54Zm0,2.52h4.66v19.3h-4.66Z" fill="#fff"/>
      <path d="M114.35,20.65c.45,1.73,1.8,2.71,4,2.71s3.12-.87,3.12-2.22-.86-2.06-3.9-2.81c-6-1.47-7.1-3.35-7.1-6,0-2.82,2-5.71,7.51-5.71s7.58,3.08,7.77,5.75h-4.47c-.18-.91-.82-2.41-3.49-2.41-2.1,0-2.74,1-2.74,2s.68,1.65,3.94,2.44c6.24,1.43,7.25,3.57,7.25,6.42,0,3.23-2.52,6-8,6s-8-2.74-8.44-6.16Z" fill="#fff"/>
      <path d="M146.33,20.24c-.71,3.23-3,6.57-8.44,6.57-5.78,0-8.94-4-8.94-10,0-5.59,3.34-10.21,9.2-10.21,6.16,0,8,4.43,8.18,6.72h-4.58a3.42,3.42,0,0,0-3.71-3c-2.78,0-4.32,2.4-4.32,6.34,0,4.21,1.58,6.46,4.28,6.46a3.69,3.69,0,0,0,3.72-2.89Z" fill="#fff"/>
      <path d="M150.05,4.54V0h4.66V4.54Zm0,2.52h4.66v19.3h-4.66Z" fill="#fff"/>
      <path d="M159.81,33.83V11.72c0-1.54,0-3.12,0-4.66h4.51a22,22,0,0,1,.19,2.63,6.24,6.24,0,0,1,5.82-3.08c4.39,0,7.69,3.68,7.69,9.61,0,6.84-3.71,10.59-8.41,10.59-2.85,0-4.35-1.13-5.1-2.4v9.42Zm9.05-23.43c-3.34,0-4.62,2.14-4.62,6.31,0,4,1.13,6.35,4.39,6.35,3.05,0,4.62-2.44,4.62-6.65C173.25,12.69,171.68,10.4,168.86,10.4Z" fill="#fff"/>
      <path d="M181.89,26.36V0h4.65V26.36Z" fill="#fff"/>
      <path d="M191.65,4.54V0h4.65V4.54Zm0,2.52h4.65v19.3h-4.65Z" fill="#fff"/>
      <path d="M201.45,11.91c0-1.66,0-3.38,0-4.85h4.51a21.35,21.35,0,0,1,.18,2.7c.68-1.35,2.26-3.15,5.75-3.15,3.79,0,6.42,2.48,6.42,7.44V26.36h-4.66V14.57c0-2.4-.86-4.13-3.41-4.13-2.74,0-4.1,1.77-4.1,5.33V26.36h-4.65Z" fill="#fff"/>
      <path d="M238.58,21.63a39.45,39.45,0,0,0,.26,4.73h-4.46a9.18,9.18,0,0,1-.31-2.1c-.67,1.16-2.06,2.55-5.59,2.55-4.62,0-6.57-3-6.57-6,0-4.35,3.49-6.38,9.16-6.38H234V13.11c0-1.51-.49-3.08-3.38-3.08-2.55,0-3.08,1.16-3.34,2.59h-4.47c.26-3.16,2.25-6,8-6,5,0,7.77,2,7.77,6.53ZM234,17.35h-2.52c-3.41,0-4.92,1-4.92,3.19a2.79,2.79,0,0,0,3.12,2.85c3.83,0,4.32-2.62,4.32-5.48Z" fill="#fff"/>
      <path d="M243.72,12.28c0-2.18,0-3.79,0-5.22h4.58c.07.45.11,2.25.11,3.57.9-2.33,3-4,6.31-4v4.51c-3.91,0-6.31,1.35-6.31,6.49v8.75h-4.66Z" fill="#fff"/>
      <path d="M261.78,7.06c2.4,7.55,4.13,13.18,4.51,15.06h0c.49-2,1.69-6.39,4.28-15.06h4.66l-6.64,20c-1.88,5.59-3.38,7.17-7.78,7.17a20.89,20.89,0,0,1-2.36-.15V30.23c.41,0,1,.07,1.46.07,2.1,0,3.08-.79,3.94-3.3L256.79,7.06Z" fill="#fff"/>
      <path d="M.55,40.89h10c7.47,0,12.43,4.33,12.43,12S18.12,65.78,10.31,65.78H.55ZM5.43,61.8h4.66c5.37,0,7.81-3.52,7.81-8.85,0-4.54-2.29-8.08-7.81-8.08H5.43Z" fill="#fff"/>
      <path d="M30.66,57.11c0,2.89,1.46,5.41,4.36,5.41,2.47,0,3.26-1.13,3.79-2.37H43.5c-.71,2.4-2.81,6.08-8.63,6.08-6.24,0-8.9-4.8-8.9-9.83,0-6,3-10.37,9.12-10.37,6.5,0,8.67,4.85,8.67,9.43a12.4,12.4,0,0,1-.07,1.65Zm8.41-3c0-2.59-1.16-4.69-4-4.69s-4,1.95-4.28,4.69Z" fill="#fff"/>
      <path d="M50.93,60.08c.45,1.72,1.81,2.7,4,2.7s3.12-.87,3.12-2.22-.87-2.06-3.91-2.81c-6-1.47-7.09-3.34-7.09-6,0-2.82,2-5.71,7.51-5.71s7.58,3.08,7.77,5.75H57.88c-.19-.9-.83-2.41-3.49-2.41-2.1,0-2.74,1-2.74,2s.67,1.66,3.94,2.44c6.23,1.43,7.25,3.57,7.25,6.43,0,3.22-2.52,6-8,6s-8-2.74-8.45-6.15Z" fill="#fff"/>
      <path d="M66.59,44V39.42h4.65V44Zm0,2.51h4.65v19.3H66.59Z" fill="#fff"/>
      <path d="M93.36,63.64c0,6.2-2.4,10-9.35,10-6.65,0-8.18-3.72-8.41-6h4.73c.45,1.58,1.69,2.56,3.87,2.56,3.79,0,4.58-2.33,4.58-6.35V62.67c-1,1.84-2.67,2.92-5.63,2.92-5,0-8-4.05-8-9.42,0-6.12,3.64-10.14,8.41-10.14,3.45,0,4.88,1.62,5.22,2.63,0-.64.15-1.84.19-2.18H93.4c0,1.51,0,3.68,0,5.56ZM84.42,61.8c3.53,0,4.51-2.44,4.51-6s-.75-6-4.39-6C81.8,49.83,80,52,80,56,80,59.55,81.8,61.8,84.42,61.8Z" fill="#fff"/>
      <path d="M98.43,51.33c0-1.65,0-3.38,0-4.85h4.5a19.76,19.76,0,0,1,.19,2.71c.68-1.35,2.26-3.16,5.75-3.16,3.79,0,6.42,2.48,6.42,7.44V65.78h-4.66V54c0-2.4-.86-4.13-3.41-4.13-2.75,0-4.1,1.77-4.1,5.33V65.78H98.43Z" fill="#fff"/>
      <path d="M133.27,58.31c.64,2.78,2.59,4.09,5.85,4.09s4.74-1.42,4.74-3.53-1.24-3.38-6-4.46c-6.73-1.62-8.6-4-8.6-7.59,0-4.28,3.19-7.4,9.23-7.4,6.65,0,9.32,3.68,9.69,7.33h-4.92c-.34-1.84-1.42-3.61-4.92-3.61-2.59,0-4.09,1.09-4.09,3.16s1.24,2.85,5.56,3.86c7.47,1.77,9,4.62,9,8.15,0,4.54-3.42,7.81-10.1,7.81s-9.8-3.34-10.4-7.81Z" fill="#fff"/>
      <path d="M150.61,46.48h3.08V42.2h4.66v4.28h3.94v3.57h-3.94V60.19c0,1.61.45,2.29,2.1,2.29a8.52,8.52,0,0,0,1.39-.08v3.27a11.22,11.22,0,0,1-3.38.38c-3.49,0-4.77-1.88-4.77-5.19V50.05h-3.08Z" fill="#fff"/>
      <path d="M165.52,51.7c0-2.18,0-3.79,0-5.22h4.58c.08.45.11,2.26.11,3.57a6.41,6.41,0,0,1,6.31-4v4.51c-3.9,0-6.31,1.35-6.31,6.49v8.75h-4.65Z" fill="#fff"/>
      <path d="M194.62,61.05a39.45,39.45,0,0,0,.26,4.73h-4.47a9.84,9.84,0,0,1-.3-2.1c-.68,1.16-2.06,2.55-5.59,2.55-4.62,0-6.57-3-6.57-6,0-4.36,3.49-6.39,9.16-6.39H190V52.53c0-1.5-.49-3.08-3.38-3.08-2.56,0-3.08,1.16-3.35,2.59h-4.46c.26-3.15,2.25-6,8-6,5,0,7.78,2,7.78,6.54Zm-4.55-4.28h-2.51c-3.42,0-4.92,1-4.92,3.19a2.8,2.8,0,0,0,3.12,2.86c3.82,0,4.31-2.63,4.31-5.49Z" fill="#fff"/>
      <path d="M197.36,46.48h3.07V42.2h4.66v4.28H209v3.57h-3.94V60.19c0,1.61.45,2.29,2.1,2.29a8.52,8.52,0,0,0,1.39-.08v3.27a11.18,11.18,0,0,1-3.38.38c-3.49,0-4.77-1.88-4.77-5.19V50.05h-3.07Z" fill="#fff"/>
      <path d="M215.64,57.11c0,2.89,1.46,5.41,4.36,5.41,2.47,0,3.26-1.13,3.79-2.37h4.69c-.71,2.4-2.81,6.08-8.63,6.08-6.24,0-8.9-4.8-8.9-9.83,0-6,3-10.37,9.12-10.37,6.5,0,8.67,4.85,8.67,9.43a12.4,12.4,0,0,1-.07,1.65Zm8.41-3c0-2.59-1.16-4.69-4-4.69s-4,1.95-4.28,4.69Z" fill="#fff"/>
      <path d="M250,63.64c0,6.2-2.41,10-9.35,10-6.65,0-8.19-3.72-8.41-6h4.73c.45,1.58,1.69,2.56,3.87,2.56,3.79,0,4.58-2.33,4.58-6.35V62.67c-1,1.84-2.67,2.92-5.64,2.92-5,0-8-4.05-8-9.42,0-6.12,3.64-10.14,8.41-10.14,3.45,0,4.88,1.62,5.22,2.63,0-.64.15-1.84.18-2.18H250c0,1.51,0,3.68,0,5.56ZM241,61.8c3.53,0,4.51-2.44,4.51-6s-.76-6-4.4-6c-2.74,0-4.58,2.17-4.58,6.15C236.55,59.55,238.39,61.8,241,61.8Z" fill="#fff"/>
      <path d="M257.69,46.48c2.4,7.55,4.13,13.18,4.51,15.06h0c.49-2,1.69-6.38,4.28-15.06h4.66l-6.65,20c-1.87,5.59-3.38,7.17-7.77,7.17a20.89,20.89,0,0,1-2.36-.15V69.65c.41,0,1,.07,1.46.07,2.1,0,3.08-.78,3.94-3.3L252.7,46.48Z" fill="#fff"/>
    </g>
  </g>
</svg>
