<svg xmlns="http://www.w3.org/2000/svg" viewBox="0 0 221.5 133.61">
  <g>
    <g>
      <rect x="194.67" width="26.83" height="11.23" style="fill: #b2b3b4"/>
      <rect x="194.67" y="11.23" width="26.83" height="15.88" style="fill: #d2d3d3"/>
      <rect x="194.67" y="27.11" width="26.83" height="15.87" style="fill: #adadad"/>
      <rect x="194.67" y="42.99" width="26.83" height="15.87" style="fill: #79797a"/>
      <rect x="194.67" y="58.85" width="26.83" height="15.88" style="fill: #d2d3d3"/>
      <rect x="194.67" y="74.73" width="26.83" height="15.87" style="fill: #969594"/>
      <rect x="194.67" y="90.6" width="26.83" height="15.87" style="fill: #dddede"/>
      <rect x="194.67" y="106.48" width="26.83" height="15.87" style="fill: #b1b1b2"/>
      <rect x="194.67" y="122.36" width="26.83" height="11.26" style="fill: #828282"/>
    </g>
    <g>
      <path d="M110.44,53.93c-4.92,0-8.75,4.18-9.3,10.07-1.23,14,15.59,13.34,16.79.14C118.49,58.82,115.78,54,110.44,53.93Z" style="fill: #fff"/>
      <path d="M138.87,53c-1.34,0-1.45.8-1.3,1.36s1,3.39,1,3.39,1.39-2.89,1.64-3.48S140.21,53,138.87,53Z" style="fill: #fff"/>
      <path d="M139.22,84.42c.19-1.92-.44-3.56-2.33-3.62-2.8-.18-4,4.45-2.32,6.25C136.43,88.87,139.09,87.13,139.22,84.42Z" style="fill: #fff"/>
      <path d="M94,46.77c4.88,0,8.82-4.31,9.37-10.14,1.16-13.74-15.67-13.4-16.79-.15C86,41.89,88.57,46.66,94,46.77Z" style="fill: #fff"/>
      <path d="M89.93,58.29c.35-4.15-2.85-4.32-5.72-4.2-.06.5-.8,8.29-.86,8.88C85,63,89.31,63.26,89.93,58.29Z" style="fill: #fff"/>
      <path d="M69.56,58a3.75,3.75,0,0,0-4-4.1H62.94c0,.44-.71,7.52-.76,8h2.54C67.35,61.94,69.34,60.32,69.56,58Z" style="fill: #fff"/>
      <path d="M70.76,69.27c.32-3.36-2.3-5.22-5.77-5.19H62.3c0,.45-.89,9.48-.94,10h3.25C68.12,74.09,70.48,72.25,70.76,69.27Z" style="fill: #fff"/>
      <path d="M0,0V133.61H194.67V0ZM155.33,44.85c.12-1.31.8-8.68,1-10.37l.6-6.24c.2-2.08-.07-2.6-1.16-3.09l.33-.82h14.61L170.34,28l-.86.09c-.35-1.41-1.42-1.27-2.77-1.39h-5.3c0,.55-.66,7-.72,7.63h3.53a3.78,3.78,0,0,0,2-.3,1.43,1.43,0,0,0,.87-.88l.85.12-.44,4.51-.84.11A1.39,1.39,0,0,0,166,37c-.67-.45-4.46-.22-5.49-.27,0,.53-.84,9-.9,9.64h5.37a8.84,8.84,0,0,0,3.09-.4,3.09,3.09,0,0,0,1.46-1l.72.43-1.1,3.3H153.73l-.16-.81C154.75,47.41,155.12,46.92,155.33,44.85Zm-26.49-8.26c.9-10.9,13.82-16,22.9-10.07l.21.16-.4,6.39h-.89a7.42,7.42,0,0,0-7.52-6.61c-4.95,0-9.08,4.37-9.62,10.12-1,8.47,6.42,12.62,13.77,8.57l.18-.1c.06-.83.62-7.17.62-7.17A2.05,2.05,0,0,0,147,35.43l.18-.83h6.09l.19.81a2.45,2.45,0,0,0-1.57,2.41s-.54,6.44-.54,6.44,0,.24,0,.34c0,.32.31.64.47.84l.23.28C143,51.89,127.72,50.13,128.84,36.59ZM110.42,45,112,28.24c.22-2.17-.12-2.61-1.15-3l.17-.85h7.87c3.15,0,4.56.36,6.09,1.54,4.09,3.52,1.27,10-3.7,10.61a6.08,6.08,0,0,1,4,3.86l.71,2.1.51,1.63c.72,1.84.85,3.35,2.79,3.79l-.22.86h-3.41c-1.92,0-2.51-.82-3.43-3.65l-1.41-4.44c-1.61-3.67-3.33-3-5.35-3.05-.13,1.29-.68,7.26-.68,7.26a4.68,4.68,0,0,0,.27,2.44c.12.28.42.42.91.59l-.15.87-7,0-.13-.85C109.58,47.58,110.24,47.13,110.42,45Zm14.42,42c1.23,1.23,3.58,1.33,5-1l.05-.1c.33.12.24,0-.09,2v.07l-.06,0c-3.05,1.78-8,.56-7.55-3.61.22-3.5,4.61-5.65,8.15-3.81l.08,0v.08c0,2,0,2-.18,2l-.12,0a2.52,2.52,0,0,0-2.5-1.9C124.54,80.65,123,84.84,124.84,87Zm-2-22.79c-.74,11-16,16.84-23.78,8.62-7.36-8.45.73-21.56,11.61-21.26C117.83,51.4,123.62,57,122.83,64.18ZM82.73,74.82c.12.26.43.41.92.57l-.15.88h-7l-.15-.88c.87-.32,1.54-.77,1.71-2.94l1.59-16.72c.22-2.17-.11-2.62-1.15-3l.17-.84h7.87c3.14,0,4.56.36,6.09,1.54,4.09,3.5,1.26,10-3.7,10.6a6.14,6.14,0,0,1,4,3.87c.31.92.93,2.81,1.21,3.72C94.9,73.43,95,75,97,75.38l-.22.86h-3.4c-1.93,0-2.52-.82-3.45-3.65l-1.4-4.45c-1.6-3.66-3.33-2.94-5.35-3.05-.12,1.3-.68,7.28-.68,7.28A4.72,4.72,0,0,0,82.73,74.82ZM57.82,52.49l.09-.79c2.24.08,9.28-.21,11.22.29,2.88.64,5,3,4.72,5.49a6.45,6.45,0,0,1-4.39,5.32c7.06,1.34,7,10.22.72,12.69a11.27,11.27,0,0,1-5,.83H55.55l.06-.84c.71-.18,1.08-.35,1.33-1.64.05-.28.09-.51.14-.91l1.71-17.65C58.93,54.06,58.91,52.64,57.82,52.49Zm6.91-3.79-.17-.81c1.18-.48,1.54-1,1.74-3,0,0,.73-7.54.78-8.17-1.14,0-4.16-.15-4.16,1,0,0-.6,6.93-.6,6.93a2.75,2.75,0,0,0,0,.38c0,.32.33.66.5.88l.25.29c-10,6.64-25.6,4.49-24.3-10.28.93-11.45,14.5-16.79,24-10.58l.24.16L62.57,32h-.93a7.92,7.92,0,0,0-7.89-6.72c-5.18,0-9.52,4.6-10.1,10.63-.31,3.32.4,6.78,2.13,8.69a8.62,8.62,0,0,0,6.55,2.62c1.92,0,3.18-.32,6-1.74.08-.87.68-7.7.68-7.7a2.14,2.14,0,0,0-1.21-2.59l.2-.86h9.35l.57-6.1c.2-2.08-.07-2.6-1.16-3.09l.34-.82H81.67L81.32,28l-.86.09c-.32-1.4-1.43-1.28-2.77-1.39h-5.3c0,.55-.65,7-.71,7.63H75.2a3.78,3.78,0,0,0,2-.3,1.5,1.5,0,0,0,.88-.88l.85.12-.45,4.51-.83.11a1.42,1.42,0,0,0-.75-.92c-.69-.45-4.45-.22-5.49-.27,0,.53-.85,9-.91,9.64h5.38a8.64,8.64,0,0,0,3.07-.4,3,3,0,0,0,1.47-1l.72.43-1.09,3.3Zm40.74-20.8c7.44,8.54-.55,21.56-11.67,21.22-7.16.12-12.84-5.37-12-12.56C82.55,25.54,97.76,19.6,105.47,27.9Zm-92,22.68c.3-34.34,41-46.72,80.73-29.24C52.74,6.25,26.29,21,26.29,44.71c0,31.37,43.89,61.42,77.7,51.41l-25.54-17h3.21l38.28,18.4C82.08,120,9.57,82.64,22.25,35.74,4.9,86.79,86.32,135.35,137.06,99.23L84.13,79.14h2.45L153.21,99.6C104.15,145,13,109.24,13.48,50.58ZM131.86,84.24c.23-3.58,5.51-6.07,8.47-2.94,3.58,4.92-3.76,10-7.57,6A3.94,3.94,0,0,1,131.86,84.24Zm11.68-3.95.06-.27h2.23l0,.27a.51.51,0,0,0-.28.43s-.65,6.69-.68,7a.31.31,0,0,1,.1,0l1.13,0c1.34-.06,1.7-.07,2.11-.72l.25.13-.45,1.5h-5.25l-.07-.28a.52.52,0,0,0,.33-.42l.69-7.24A.38.38,0,0,0,143.54,80.29Zm11.9,8.35h-5.27l-.07-.28a.49.49,0,0,0,.33-.43l.71-7.23a.38.38,0,0,0-.24-.41L151,80h2.23l.06.27a.51.51,0,0,0-.3.43s-.64,6.69-.67,7h.09l1.13,0c1.35,0,1.71,0,2.13-.7l.24.12Zm-3.65-12.37-.16-.84c1.41-.58,1.64-1.1,1.83-3.25l1.53-16c.21-2.39-1-3.1-2-3.1s-2,.83-2.88,2.84L140.27,77s-2.84-8.37-3.49-10.06c-.84,1.66-5.71,10.06-5.71,10.06l-6.79-21.46A4.1,4.1,0,0,0,122.46,53l-.08-.06.39-1h6.45l0,1.11c-.77.18-.83.53-.87.85.51,2.06,3.43,10.94,4.57,14.7.72-1.42,1.67-3.16,2.69-5.12-.34-1.1-2.4-8-2.4-8A3.59,3.59,0,0,0,131.44,53l.4-1.08h13l.11,1.11a4.81,4.81,0,0,0-2.3,2.47l-3,6c.08.28,1.55,4.89,2,6.5,1.57-3.4,6.06-13.16,6.06-13.17.31-.64.29-.64.31-.87.05-.53-.12-.71-1-.89l.21-1.15h12s11.18,14.42,12.09,15.64c.27-2.92,1.07-11.53,1.07-11.53a7.22,7.22,0,0,0-.15-2.43c-.14-.33-.34-.54-1-.84l.17-.83h5.34l.11.88c-1.34.39-1.71.84-2,3.25l-2,21.14c-6.72-8.66-14.35-18.62-15.44-20.07-.19,2-.69,7.56-1.45,15.39a4.26,4.26,0,0,0,.11,2.23,1.73,1.73,0,0,0,1,.75l-.18.83Zm10,7.19a.52.52,0,0,0,.35-.27l.27.08-.13,1.31H162c0-.12-.17-.25-.27-.25H160c0,.22-.29,3.1-.32,3.34a10.07,10.07,0,0,0,1.44,0h.14c1,0,1.38,0,1.83-.7l.24.12-.41,1.5H157l.44-.27c.22-.12.33-.22.36-.44l.7-7.23a.4.4,0,0,0-.24-.41l.06-.27h5.07l-.1,1.66-.22-.38c-.16-.26-.36-.34-.81-.37l-1.95,0c0,.21-.22,2.3-.25,2.55ZM173.66,85a.56.56,0,0,0-.31.46c0,.33-.3,2-.08,2.19l.15.14-.17.08c-3.31,1.73-8.55,1.12-8.23-3.49.27-3.5,4.56-5.64,8.17-3.81l.09,0-.1,2-.26,0a2.52,2.52,0,0,0-2.45-1.83c-5,0-4.57,8.94.86,6.64,0-.16.2-2.06.2-2.06a.4.4,0,0,0-.2-.43l-.41-.26h3.19Zm5.9-1.51a.54.54,0,0,0,.35-.27l.25.08L180,84.58h-.26a.39.39,0,0,0-.28-.25h-1.73c0,.22-.3,3.1-.33,3.34a10.23,10.23,0,0,0,1.44,0H179c1,0,1.38,0,1.85-.7l.24.12-.42,1.5h-5.92c.26-.18.82-.34.81-.71l.71-7.23a.38.38,0,0,0-.25-.41l.06-.27h5.09l-.1,1.64-.22-.36c-.17-.26-.37-.34-.82-.37l-1.94,0c0,.21-.22,2.3-.25,2.55Z" style="fill: #fff"/>
      <path d="M122.28,30.81c.36-4.15-2.85-4.33-5.73-4.21,0,.5-.8,8.3-.86,8.89C117.36,35.49,121.65,35.77,122.28,30.81Z" style="fill: #fff"/>
    </g>
  </g>
</svg>
