<svg xmlns="http://www.w3.org/2000/svg" viewBox="0 0 250 218.56">
  <g>
    <path d="M29,63.94c3.54,0,7.07-.17,10.6-.12,5.46.09,11-.12,16.35.55,10.17,1.26,16.36,7.73,18,17.49a20.52,20.52,0,0,1-13.12,22.55,27.59,27.59,0,0,1-10.35,1.89c-6.72,0-13.44,0-20.16,0-.44,0-.87,0-1.3.06V104c1.85-.38,3.69-.75,5.53-1.15s2.1-.6,2.1-2.58V73.78c0-1.3,0-2.59,0-3.89,0-1.55-.39-2-1.87-2.38-1.91-.43-3.83-.81-5.75-1.22ZM43.36,85.08c0,5.38,0,10.76,0,16.14,0,1,.29,1.48,1.41,1.46,2.83-.07,5.66,0,8.49,0a12.85,12.85,0,0,0,12-9.18,28,28,0,0,0,.83-13C65,73.62,61,69,53.74,67.92a67.66,67.66,0,0,0-8.79-.3c-1.57,0-1.59,0-1.59,1.57C43.35,74.49,43.36,79.79,43.36,85.08Z" fill="#fff"/>
    <path d="M126.12,115.29c9,0,15.11,3.22,19.12,10.13,2.56,4.41,3.1,9.27,2.78,14.23a21.84,21.84,0,0,1-7,14.87,19,19,0,0,1-10.69,5c-7.32,1-13.88-.55-18.92-6.24a23.36,23.36,0,0,1-5.34-12.39c-.94-6.57.88-12.51,4.72-17.85C114,118.57,120.39,115,126.12,115.29Zm-12.47,22.64c.09,1.11.18,3.11.46,5.09.56,4,1.88,7.69,4.92,10.55,4.27,4,10.77,4.51,15.08,1.07a15.47,15.47,0,0,0,5.1-8.16,33.13,33.13,0,0,0,1-12.81,19.61,19.61,0,0,0-5.71-12.2c-4.83-4.81-14.89-4.75-18.5,3.54C114.31,128.85,113.71,132.89,113.65,137.93Z" fill="#fff"/>
    <path d="M158.25,105.7,156,104.41c-2.87-1.58-3.19-4.53-.66-6.62a27.09,27.09,0,0,1,3-2c1-.59.93-.72.06-1.49A18.67,18.67,0,0,1,155,90.94a9.64,9.64,0,0,1,4.2-14A14.37,14.37,0,0,1,172,77a3.36,3.36,0,0,0,3,0,60.66,60.66,0,0,1,6.52-2.28,3,3,0,0,1,3.34,1.67,3.88,3.88,0,0,1-.44,3.87,2.94,2.94,0,0,1-5-.9,2.59,2.59,0,0,0-4.12-.53c-.48.58-.21,1,.19,1.43,3.81,4.13,1.91,11.23-2.08,13.79a12.77,12.77,0,0,1-6.56,2c-1.41,0-2.82,0-4.23-.11a3.09,3.09,0,0,0-3.21,2.55,2.51,2.51,0,0,0,2.37,3,27.8,27.8,0,0,0,3.87.32c3.14.1,6.29,0,9.42.26,5.21.39,7.95,4.53,6.18,9.39a12.75,12.75,0,0,1-2.63,4.12c-2.41,2.62-5.61,3.79-9.05,4.38a26,26,0,0,1-14-1,6.09,6.09,0,0,1-4.27-6.32,4.83,4.83,0,0,1,1.94-3.5c1.17-.92,2.46-1.69,3.69-2.52Zm8.14,12.12.08-.31c.43,0,.86,0,1.29,0,3.25-.23,6.18-1.21,8.21-3.93s.76-6.13-2.64-6.54a100.74,100.74,0,0,0-11.13-.66,5.69,5.69,0,0,0-5.45,5c-.32,2.35,1,4.2,3.86,5.12C162.49,117.06,164.46,117.38,166.39,117.82ZM159.27,86c.11,1,.2,2,.32,3.06a5.28,5.28,0,0,0,4.46,4.92c3.4.51,5.67-.62,6.86-3.36a12.09,12.09,0,0,0,.58-8,6,6,0,0,0-6.43-4.74A5.88,5.88,0,0,0,159.59,83C159.43,84,159.37,85,159.27,86Z" fill="#fff"/>
    <path d="M81.56,116.32c5.69,0,11.39,0,17.09,0,1,0,1.42.24,1.59,1.32.52,3.25,1.23,6.46,1.81,9.7a3.91,3.91,0,0,1-.24,1.31c-.57-.15-1.28-.13-1.69-.47a9.26,9.26,0,0,1-1.26-1.83c-.86-1.27-1.69-2.56-2.6-3.79a6.44,6.44,0,0,0-5.37-2.91q-2.23,0-4.47-.06c-1,0-1.34.46-1.33,1.37,0,1.41,0,2.82,0,4.23,0,6.72,0,13.43,0,20.14,0,2.31-.14,4.62-.15,6.94s.47,2.77,2.74,3.13c1.36.21,2.69.54,4,.76,1,.17,1.28.73,1.19,1.66s-.78.83-1.39.83H71.83c-.68,0-1.36,0-1.44-.94a1.28,1.28,0,0,1,1.23-1.53c1.59-.29,3.16-.61,4.74-.94,1.14-.24,1.93-.76,1.84-2.14-.06-.93.14-1.88.14-2.81q0-14.55,0-29.09c0-1.69-.11-1.8-1.82-1.69-1.88.12-3.75.32-5.63.39a4.17,4.17,0,0,0-3.25,1.65c-1.39,1.76-2.67,3.59-4,5.39a5.31,5.31,0,0,1-.95,1.33,2.4,2.4,0,0,1-1.5.32c-.13,0-.36-.77-.3-1.15.39-2.36.85-4.71,1.29-7.06.17-.92.39-1.84.49-2.77s.54-1.3,1.54-1.3C70,116.34,75.78,116.32,81.56,116.32Z" fill="#fff"/>
    <path d="M196.59,81.21c1.36-.9,2.68-1.84,4.07-2.69a22.42,22.42,0,0,1,4.41-2.43c6.26-2,11.13,1.56,11.19,8.18,0,5.42,0,10.83,0,16.25,0,1.94.32,2.34,2.24,2.85.53.14,1.05.33,1.58.48.9.25.93.93.88,1.68-.06.92-.75.76-1.31.76H207.4c-.64,0-1.3.07-1.39-.85a1.33,1.33,0,0,1,1-1.6c4.3-1.26,3.39-1.75,3.43-5,.05-4.08,0-8.16,0-12.25a7,7,0,0,0-1.4-4.4c-1.76-2.25-4.09-2.42-6.6-1.73a15.87,15.87,0,0,0-3.16,1.25c-2.05,1.07-2.83,3.08-2.75,5.41.16,4.3.17,8.62.09,12.92-.05,2.21.38,3,2.81,3.52,1,.23,1.83.65,1.66,1.85-.05.31-.54.81-.82.81-4.37,0-8.73.06-13.09,0-.35,0-1-.56-1-.85A1.92,1.92,0,0,1,187,104a11.85,11.85,0,0,1,2.32-.84,2.4,2.4,0,0,0,1.75-2.4q0-8.53,0-17.07a2.18,2.18,0,0,0-1.44-2.1,12.11,12.11,0,0,1-2.4-1.24,2.17,2.17,0,0,1-.78-1.48,1.55,1.55,0,0,1,.91-1.14c2.69-.73,5.41-1.34,8.11-2,.76-.19,1,.13,1,.83,0,.86-.1,1.72-.14,2.58,0,.61-.07,1.22-.1,1.84Z" fill="#fff"/>
    <path d="M103.12,99.93c1.47,1.46,1.52,1.62.1,2.95a16,16,0,0,1-12.81,4.42A13.93,13.93,0,0,1,78,95.83c-1.29-7.57.72-14.21,7.51-18.46,5-3.12,12.26-2.29,16.08,1.78a12.89,12.89,0,0,1,3.05,7c.18,1.08.28,2.18.43,3.26s-.42,1.08-1.2,1.07c-5.14,0-10.29,0-15.44,0-1.25,0-2.51,0-3.77,0-.66,0-1,.23-1,1,.34,4.37,1.51,8.23,5.87,10.39,4,2,7.75,1.32,11.46-.7C101.75,100.75,102.44,100.33,103.12,99.93ZM83.53,87.5c.25.19.28.23.31.23l14.23.08c.67,0,.78-.38.64-.94a42.08,42.08,0,0,0-1.24-4.76,6.32,6.32,0,0,0-10.42-2.26C85,82,84.49,84.86,83.53,87.5Z" fill="#fff"/>
    <path d="M109.19,101.4a26.17,26.17,0,0,1,0-2.94,1.72,1.72,0,0,1,.76-1.2,1.24,1.24,0,0,1,1.69.63,24.72,24.72,0,0,0,1.86,3.39,7.64,7.64,0,0,0,9.77,2.32,4.21,4.21,0,0,0,2.41-3.89,3.85,3.85,0,0,0-2.1-3.8c-2.5-1.24-5-2.41-7.54-3.61-2.14-1-4.29-2-5.52-4.21-2.18-3.84-.88-8.29,3.17-10.89a9.53,9.53,0,0,1,6.5-1.51c2.41.3,4.84.48,7.26.76,1.49.18,1.72.47,1.73,2s0,3.07,0,4.6c0,.4-.25,1-.52,1.12a1.78,1.78,0,0,1-1.37-.28,3.83,3.83,0,0,1-1-1.3c-2-3.44-4.61-4.74-8.31-4.07a4,4,0,0,0-3.36,3.21,3.6,3.6,0,0,0,2,4c2.9,1.47,5.87,2.81,8.83,4.18,1.8.83,3.54,1.7,4.58,3.52a9,9,0,0,1-3,11.71,14.45,14.45,0,0,1-9.84,1.94c-2.17-.32-4.33-.71-6.5-1.07-1.07-.17-1.71-.65-1.6-1.88C109.25,103.21,109.19,102.3,109.19,101.4Z" fill="#fff"/>
    <path d="M145.8,75.45c.06.71.12,1.2.13,1.69v23.3c0,2.08.25,2.39,2.23,3a15.79,15.79,0,0,1,1.55.55,1.18,1.18,0,0,1,.64,1.67,1.43,1.43,0,0,1-1.12.62q-6.3.08-12.61,0a1.39,1.39,0,0,1-1.09-.64,1.17,1.17,0,0,1,.66-1.65c.74-.27,1.49-.49,2.23-.75a2.45,2.45,0,0,0,1.78-2.59q0-8.4,0-16.82a2.18,2.18,0,0,0-1.32-2.16,21.81,21.81,0,0,1-2.49-1.31,2,2,0,0,1-.85-1.34,1.57,1.57,0,0,1,.89-1.18C139.48,77,142.56,76.25,145.8,75.45Z" fill="#fff"/>
    <path d="M143.06,58.74A4.17,4.17,0,0,1,147.19,63a4.4,4.4,0,0,1-4.63,4.68c-2.44,0-3.95-1.69-4.06-4.23S141,58.39,143.06,58.74Z" fill="#fff"/>
  </g>
</svg>
