<svg xmlns="http://www.w3.org/2000/svg" viewBox="0 0 697.02 218.5"><rect x="208.91" y="42.44" width="26.83" height="11.23" style="fill:#b2b3b4"/><rect x="208.92" y="53.68" width="26.83" height="15.88" style="fill:#d2d3d3"/><rect x="208.92" y="69.56" width="26.83" height="15.87" style="fill:#adadad"/><rect x="208.92" y="85.43" width="26.83" height="15.87" style="fill:#79797a"/><rect x="208.92" y="101.3" width="26.83" height="15.88" style="fill:#d2d3d3"/><rect x="208.92" y="117.17" width="26.83" height="15.87" style="fill:#969594"/><rect x="208.92" y="133.05" width="26.83" height="15.87" style="fill:#dddede"/><rect x="208.92" y="148.92" width="26.83" height="15.87" style="fill:#b1b1b2"/><rect x="208.91" y="164.8" width="26.83" height="11.26" style="fill:#828282"/><path d="M124.68,96.37c-4.91,0-8.74,4.18-9.29,10.07-1.23,14,15.58,13.35,16.79.14C132.73,101.27,130,96.46,124.68,96.37Z" style="fill:#fff"/><path d="M153.12,95.43c-1.34,0-1.45.8-1.3,1.37s1,3.38,1,3.38,1.4-2.89,1.65-3.47S154.46,95.43,153.12,95.43Z" style="fill:#fff"/><path d="M153.47,126.87c.19-1.92-.45-3.57-2.33-3.63-2.81-.18-4,4.45-2.32,6.26C150.67,131.31,153.34,129.58,153.47,126.87Z" style="fill:#fff"/><path d="M108.24,89.22c4.87,0,8.82-4.31,9.36-10.15,1.17-13.74-15.67-13.4-16.78-.15C100.27,84.33,102.82,89.1,108.24,89.22Z" style="fill:#fff"/><path d="M104.18,100.74c.35-4.15-2.85-4.33-5.73-4.21,0,.51-.79,8.3-.85,8.88C99.25,105.41,103.55,105.7,104.18,100.74Z" style="fill:#fff"/><path d="M83.81,100.43a3.75,3.75,0,0,0-4-4.1H77.19c0,.44-.72,7.52-.76,8H79C81.6,104.38,83.59,102.76,83.81,100.43Z" style="fill:#fff"/><path d="M85,111.71c.31-3.36-2.3-5.21-5.77-5.19H76.55c0,.46-.89,9.48-.94,10h3.25C82.37,116.53,84.73,114.69,85,111.71Z" style="fill:#fff"/><path d="M14.25,42.44V176.06H208.91V42.44ZM169.58,87.29c.12-1.31.8-8.68,1-10.36l.6-6.25c.2-2.08-.08-2.6-1.16-3.09l.32-.81h14.62l-.34,3.64-.86.09c-.35-1.4-1.42-1.27-2.77-1.39h-5.3c0,.55-.67,7-.72,7.64h3.53a3.69,3.69,0,0,0,2-.31,1.45,1.45,0,0,0,.88-.88l.85.12-.44,4.52-.84.11a1.4,1.4,0,0,0-.75-.92c-.68-.46-4.46-.22-5.5-.28,0,.53-.83,9-.89,9.64h5.37a8.61,8.61,0,0,0,3.09-.4,3.09,3.09,0,0,0,1.46-1l.72.44-1.1,3.3H168l-.16-.82C169,89.85,169.36,89.37,169.58,87.29ZM143.09,79C144,68.13,156.9,63.06,166,69l.21.15-.4,6.4h-.89a7.42,7.42,0,0,0-7.52-6.62c-4.95,0-9.08,4.37-9.62,10.12-1,8.47,6.41,12.63,13.77,8.57l.17-.1c.07-.83.62-7.17.62-7.17a2,2,0,0,0-1.13-2.46l.18-.82h6.09l.19.81a2.46,2.46,0,0,0-1.57,2.41s-.54,6.45-.54,6.45,0,.23,0,.34c0,.32.31.64.46.84l.24.28C157.28,94.34,142,92.57,143.09,79Zm-18.43,8.37,1.6-16.72c.21-2.18-.12-2.62-1.15-3l.16-.84h7.88c3.14,0,4.56.35,6.08,1.54,4.1,3.51,1.28,10-3.7,10.6a6.09,6.09,0,0,1,4,3.87l.7,2.09.51,1.63c.73,1.85.85,3.36,2.79,3.8l-.22.85h-3.41c-1.91,0-2.5-.82-3.42-3.65l-1.41-4.44c-1.62-3.68-3.33-3-5.36-3.06l-.67,7.27a4.7,4.7,0,0,0,.27,2.44c.12.27.42.41.91.58l-.15.87-7,0-.14-.85C123.82,90,124.48,89.57,124.66,87.41Zm14.43,42c1.23,1.23,3.58,1.32,5-1l.05-.09c.33.11.24,0-.09,1.94v.07l-.06,0c-3.05,1.79-8,.56-7.55-3.6.22-3.51,4.61-5.66,8.15-3.81l.08,0v.09c-.06,2-.06,2-.18,2l-.12,0a2.53,2.53,0,0,0-2.5-1.9C138.79,123.09,137.26,127.28,139.09,129.42Zm-2-22.8c-.74,11-16,16.84-23.78,8.62-7.36-8.44.73-21.56,11.61-21.26C132.07,93.85,137.87,99.45,137.08,106.62ZM97,117.26c.13.26.43.41.93.57l-.15.88h-7l-.15-.88c.87-.31,1.53-.77,1.71-2.94l1.59-16.72c.22-2.17-.11-2.62-1.15-3l.17-.85h7.87c3.14,0,4.56.36,6.09,1.54,4.09,3.5,1.26,10-3.7,10.6a6.14,6.14,0,0,1,4,3.87c.31.92.93,2.81,1.21,3.73.73,1.83.83,3.37,2.79,3.78l-.22.87h-3.4c-1.93,0-2.52-.82-3.45-3.66l-1.4-4.44c-1.6-3.67-3.33-2.95-5.35-3l-.68,7.27A4.82,4.82,0,0,0,97,117.26ZM72.07,94.94l.09-.79c2.23.07,9.28-.22,11.21.29,2.89.63,5,3,4.73,5.48a6.45,6.45,0,0,1-4.39,5.32c7.06,1.34,7,10.22.71,12.7a11.35,11.35,0,0,1-5,.82H69.8l.06-.84c.71-.17,1.08-.35,1.33-1.64,0-.28.09-.5.13-.91L73,97.73C73.18,96.5,73.16,95.08,72.07,94.94ZM79,91.15l-.17-.82c1.18-.48,1.54-1,1.74-3l.78-8.17c-1.15,0-4.16-.15-4.16,1,0,0-.61,6.93-.61,6.93s0,.26,0,.37c0,.32.33.67.5.88l.25.3c-10,6.64-25.6,4.48-24.31-10.29.94-11.44,14.51-16.79,24-10.58l.24.17-.45,6.48h-.92A7.91,7.91,0,0,0,68,67.73c-5.19,0-9.52,4.6-10.1,10.62-.31,3.32.4,6.79,2.12,8.69a8.65,8.65,0,0,0,6.56,2.63c1.92,0,3.18-.33,6-1.74.08-.87.69-7.71.69-7.71A2.12,2.12,0,0,0,72,77.64l.19-.87h9.36l.57-6.1c.2-2.08-.07-2.6-1.16-3.09l.33-.81H95.92l-.35,3.64-.86.09c-.32-1.4-1.43-1.28-2.77-1.39h-5.3c0,.55-.66,7-.71,7.64h3.52a3.75,3.75,0,0,0,2-.31,1.53,1.53,0,0,0,.88-.88l.85.12-.45,4.52-.84.11a1.39,1.39,0,0,0-.74-.92c-.69-.45-4.45-.22-5.5-.28,0,.53-.84,9-.9,9.64h5.38a8.42,8.42,0,0,0,3.07-.4,3.07,3.07,0,0,0,1.47-1l.72.44-1.09,3.3Zm40.74-20.81c7.44,8.54-.55,21.57-11.68,21.22C100.88,91.68,95.21,86.19,96,79,96.8,68,112,62,119.72,70.34ZM27.73,93c.3-34.34,41-46.72,80.73-29.24C67,48.7,40.54,63.47,40.54,87.15c0,31.37,43.88,61.43,77.7,51.41l-25.54-17h3.21L134.18,140C96.32,162.44,23.82,125.08,36.5,78.19c-17.35,51,64.07,99.61,114.8,63.48L98.38,121.58h2.45L167.46,142C118.4,187.42,27.2,151.68,27.73,93ZM146.1,126.68c.23-3.58,5.52-6.07,8.48-2.93,3.58,4.92-3.77,10-7.57,6A4,4,0,0,1,146.1,126.68Zm11.68-4,.07-.26h2.22l.06.26a.51.51,0,0,0-.28.43s-.66,6.69-.69,7h.11l1.12,0c1.35,0,1.7-.06,2.12-.71l.25.12-.45,1.5h-5.26l-.06-.27a.51.51,0,0,0,.32-.43l.69-7.24A.36.36,0,0,0,157.78,122.73Zm11.91,8.35h-5.28l-.06-.27a.55.55,0,0,0,.33-.43l.7-7.24a.36.36,0,0,0-.23-.41l.06-.26h2.23l.06.26a.52.52,0,0,0-.3.44s-.64,6.68-.67,7h.09l1.13,0c1.35,0,1.71-.06,2.13-.71l.24.12ZM166,118.72l-.16-.84c1.4-.59,1.64-1.11,1.83-3.26l1.53-16c.21-2.39-1-3.1-2-3.1s-2,.84-2.89,2.84l-9.79,21.13s-2.84-8.38-3.49-10.07c-.84,1.67-5.71,10.07-5.71,10.07L138.53,98a4.13,4.13,0,0,0-1.82-2.58l-.08-.06.39-1h6.44l0,1.12c-.78.17-.83.53-.87.84.51,2.06,3.43,10.94,4.57,14.71.71-1.42,1.67-3.17,2.69-5.12-.34-1.11-2.41-8-2.41-8a3.64,3.64,0,0,0-1.8-2.51l.4-1.08h13l.1,1.11a4.79,4.79,0,0,0-2.29,2.48l-3,6c.08.28,1.55,4.89,2,6.51,1.57-3.41,6.06-13.16,6.06-13.17.3-.64.29-.64.31-.87.05-.53-.12-.71-1-.89l.21-1.16h12s11.17,14.43,12.08,15.64c.28-2.92,1.08-11.52,1.08-11.52a7.47,7.47,0,0,0-.15-2.43c-.14-.33-.35-.54-1-.84l.17-.84h5.33l.11.88c-1.33.4-1.7.84-1.94,3.26l-2,21.13c-6.71-8.66-14.34-18.61-15.43-20.06-.19,2-.69,7.55-1.45,15.38a4.3,4.3,0,0,0,.11,2.24,1.73,1.73,0,0,0,1,.74l-.17.83Zm10,7.18a.53.53,0,0,0,.35-.26l.27.07-.13,1.31h-.27c0-.12-.17-.25-.27-.25h-1.73c0,.22-.3,3.1-.32,3.34a9.8,9.8,0,0,0,1.44,0h.14c1,0,1.37,0,1.83-.71l.24.12-.41,1.5h-5.91l.45-.26c.21-.12.33-.22.35-.44l.71-7.24a.41.41,0,0,0-.24-.41l.06-.26h5.07l-.1,1.65-.22-.37c-.17-.26-.36-.35-.81-.38l-2,0c0,.22-.22,2.3-.24,2.55Zm11.88,1.52a.53.53,0,0,0-.31.45c0,.34-.3,2.06-.08,2.2l.15.14-.17.08c-3.31,1.72-8.55,1.11-8.24-3.49.27-3.51,4.57-5.64,8.18-3.81l.09,0-.11,2-.26,0a2.52,2.52,0,0,0-2.44-1.83c-5,0-4.57,8.94.86,6.64,0-.15.2-2.06.2-2.06a.4.4,0,0,0-.21-.43l-.41-.25h3.2Zm5.89-1.52a.58.58,0,0,0,.36-.26l.25.07-.12,1.31H194a.36.36,0,0,0-.27-.25H192c0,.22-.3,3.1-.33,3.34a9.91,9.91,0,0,0,1.43,0h.15c1,0,1.37,0,1.84-.71l.25.12-.42,1.5H189c.26-.17.81-.34.81-.7l.71-7.24a.39.39,0,0,0-.26-.41l.07-.26h5.09l-.11,1.64-.22-.36c-.16-.26-.36-.35-.81-.38l-1.94,0c0,.22-.22,2.3-.26,2.55Z" style="fill:#fff"/><path d="M136.52,73.25c.36-4.14-2.85-4.33-5.72-4.2-.05.49-.8,8.29-.86,8.88C131.61,77.93,135.9,78.21,136.52,73.25Z" style="fill:#fff"/><path d="M248.11,42.63h0v133.2h435.2V42.63ZM517.79,77.9h5.07v23h-5.07Zm-60.63,0h17.21v4.24H462.23V87.1h11.14V91H462.23v5.65h12.4v4.25H457.16Zm-21.73,0H454.3v4.25h-6.9v18.75h-5.07V82.17h-6.9Zm-22.47,0H418V92.21a10,10,0,0,0,.16,1.83,3.64,3.64,0,0,0,.67,1.6,3.84,3.84,0,0,0,1.44,1.13,5.83,5.83,0,0,0,2.47.43c1.79,0,3-.4,3.73-1.2a5.82,5.82,0,0,0,1-3.79V77.89h5.07V92.2q0,4.68-2.61,7a10.6,10.6,0,0,1-7.21,2.28c-3.12,0-5.54-.76-7.25-2.26s-2.56-3.83-2.56-7Zm-29.64,0h5.07v23h-5.07Zm-21.73,0h18.87v4.25h-6.9v18.76h-5.07V82.16h-6.9Zm-44,0h5l9.61,15.46h.06V77.89H337v23h-5.07l-9.57-15.42h-.06v15.42h-4.75Zm-10,0h5.07v23h-5.07Zm18.59,58.4a6,6,0,0,1-1.82,2.07,8.18,8.18,0,0,1-2.61,1.19,11.67,11.67,0,0,1-3,.39H307.54v-23h10.83a14,14,0,0,1,3,.29,6.48,6.48,0,0,1,2.32,1,4.32,4.32,0,0,1,1.49,1.75,6.12,6.12,0,0,1,.54,2.71,5,5,0,0,1-.8,2.9,5.75,5.75,0,0,1-2.33,1.9,5.61,5.61,0,0,1,3.17,2.14,7,7,0,0,1,.37,6.71Zm25.19-3.08A11,11,0,0,1,349.1,137a10.29,10.29,0,0,1-3.55,2.54,12.86,12.86,0,0,1-9.53,0,10,10,0,0,1-3.55-2.53,10.85,10.85,0,0,1-2.23-3.78,13.76,13.76,0,0,1-.77-4.68,14.28,14.28,0,0,1,.77-4.79,11.25,11.25,0,0,1,2.23-3.85,10.14,10.14,0,0,1,3.55-2.57,12.55,12.55,0,0,1,9.53,0,10.23,10.23,0,0,1,3.55,2.57,11.54,11.54,0,0,1,2.21,3.85,14,14,0,0,1,.79,4.79A13.53,13.53,0,0,1,351.31,133.2Zm-.94-31.78a14.58,14.58,0,0,1-3.69-.47,9.27,9.27,0,0,1-3.16-1.47,7.13,7.13,0,0,1-2.17-2.54,7.63,7.63,0,0,1-.77-3.68h4.91a4.22,4.22,0,0,0,.41,2A3.73,3.73,0,0,0,347,96.54a4.59,4.59,0,0,0,1.63.73,7.25,7.25,0,0,0,1.93.25,11,11,0,0,0,1.45-.11,5,5,0,0,0,1.44-.44,3.17,3.17,0,0,0,1.13-.89,2.2,2.2,0,0,0,.45-1.43,2,2,0,0,0-.6-1.51,4.62,4.62,0,0,0-1.57-1,15.66,15.66,0,0,0-2.18-.68c-.82-.19-1.64-.4-2.48-.64a23.78,23.78,0,0,1-2.52-.79,8.61,8.61,0,0,1-2.19-1.21A5.73,5.73,0,0,1,341.94,87a5.6,5.6,0,0,1-.59-2.69,6,6,0,0,1,.75-3.07,7,7,0,0,1,2-2.18,8.37,8.37,0,0,1,2.77-1.28,11.75,11.75,0,0,1,3.1-.42,14.57,14.57,0,0,1,3.46.4,8.48,8.48,0,0,1,2.95,1.3,6.61,6.61,0,0,1,2.05,2.31,7.08,7.08,0,0,1,.75,3.39h-4.9a4.33,4.33,0,0,0-.44-1.71,2.86,2.86,0,0,0-1-1.06,4.14,4.14,0,0,0-1.4-.55,9.15,9.15,0,0,0-1.72-.16,5.62,5.62,0,0,0-1.22.13,3.41,3.41,0,0,0-1.11.45,3,3,0,0,0-.82.8,2.15,2.15,0,0,0-.32,1.23,2,2,0,0,0,.25,1.09,2.24,2.24,0,0,0,1,.78,13.8,13.8,0,0,0,2.09.71c.89.23,2.06.54,3.5.9a18.21,18.21,0,0,1,1.78.47,8.42,8.42,0,0,1,2.28,1.08,6.82,6.82,0,0,1,1.95,2,5.67,5.67,0,0,1,.81,3.17,7,7,0,0,1-.61,2.94,6.49,6.49,0,0,1-1.82,2.33,9.06,9.06,0,0,1-3,1.53A14.44,14.44,0,0,1,350.37,101.42Zm22.45,36.75a10.62,10.62,0,0,1-7.22,2.26c-3.12,0-5.52-.74-7.23-2.25s-2.56-3.83-2.56-7v-14.3h5.07v14.31a10.24,10.24,0,0,0,.16,1.84,3.76,3.76,0,0,0,.68,1.6,3.67,3.67,0,0,0,1.44,1.12,5.71,5.71,0,0,0,2.45.44c1.81,0,3-.4,3.74-1.21a5.76,5.76,0,0,0,1-3.79V116.91h5.06v14.31Q375.44,135.89,372.82,138.17Zm21.85,1.77-9.57-15.42H385v15.42h-4.75v-23h5l9.62,15.45H395V116.91h4.75v23Zm8.57-39h-5.06V82.16h-6.91V77.91h18.88v4.25h-6.91Zm21.13,32a10.42,10.42,0,0,1-1.95,3.67,9.15,9.15,0,0,1-3.26,2.43,10.79,10.79,0,0,1-4.58.89h-9.92v-23h9.92a11.82,11.82,0,0,1,4.13.71,9.11,9.11,0,0,1,3.32,2.13,10,10,0,0,1,2.19,3.54,14.57,14.57,0,0,1,.79,5A16,16,0,0,1,424.37,133Zm18.53,7-1.74-5.12h-8.61l-1.8,5.12h-5.1l8.7-23h5.19l8.61,23Zm22.54,0a9.07,9.07,0,0,1-.52-2.61c-.06-1-.16-2-.29-2.9a4.59,4.59,0,0,0-1.09-2.64,3.69,3.69,0,0,0-2.73-.84h-5v9H450.7v-23h12.4a7.49,7.49,0,0,1,2.79.5,6.3,6.3,0,0,1,2.12,1.37,5.93,5.93,0,0,1,1.35,2,6.5,6.5,0,0,1,.47,2.47,6.85,6.85,0,0,1-.85,3.5,5.41,5.41,0,0,1-2.8,2.26v.06a3.92,3.92,0,0,1,1.55.79,4.39,4.39,0,0,1,1,1.26,5.84,5.84,0,0,1,.57,1.6,14.81,14.81,0,0,1,.23,1.74c0,.36.05.79.07,1.28s.06,1,.11,1.52a10.28,10.28,0,0,0,.26,1.46,3.47,3.47,0,0,0,.53,1.18Zm14.05,0h-5.07v-23h5.07Zm22.42,0H484.43V117h17.22v4.24H489.5v4.93h11.15v3.93H489.5v5.65h12.41ZM500,85.25h-.06l-3.85,15.68H491l-6.1-23h5.07l3.63,15.67h.07l4-15.67h4.74l3.93,15.87h.06l3.77-15.87h5l-6.19,23h-5ZM523.11,136a6.31,6.31,0,0,1-1.82,2.34,8.73,8.73,0,0,1-3,1.52,14,14,0,0,1-4.13.55,14.71,14.71,0,0,1-3.7-.46,9.47,9.47,0,0,1-3.16-1.47,7.35,7.35,0,0,1-2.17-2.55,7.47,7.47,0,0,1-.77-3.67h4.91a4.2,4.2,0,0,0,.42,2,3.53,3.53,0,0,0,1.1,1.31,4.68,4.68,0,0,0,1.63.74,7.67,7.67,0,0,0,1.93.24,10.92,10.92,0,0,0,1.45-.11,5.12,5.12,0,0,0,1.44-.44,3.17,3.17,0,0,0,1.13-.88,2.25,2.25,0,0,0,.45-1.44,2,2,0,0,0-.6-1.51,4.77,4.77,0,0,0-1.56-1,16.77,16.77,0,0,0-2.19-.67c-.82-.2-1.65-.41-2.48-.64a25.48,25.48,0,0,1-2.52-.79,9,9,0,0,1-2.19-1.22,5.39,5.39,0,0,1-2.15-4.54,6,6,0,0,1,.76-3.07,6.78,6.78,0,0,1,2-2.18,8.69,8.69,0,0,1,2.77-1.28,11.73,11.73,0,0,1,3.09-.42,14.65,14.65,0,0,1,3.47.4,9,9,0,0,1,2.95,1.3,6.7,6.7,0,0,1,2.05,2.31,7.12,7.12,0,0,1,.76,3.4h-4.91a4.21,4.21,0,0,0-.44-1.72,2.94,2.94,0,0,0-1-1.06,4.13,4.13,0,0,0-1.4-.54,8.38,8.38,0,0,0-1.72-.16,6.49,6.49,0,0,0-1.23.12,3.25,3.25,0,0,0-1.1.46,2.88,2.88,0,0,0-.83.8,2.22,2.22,0,0,0-.31,1.23,2,2,0,0,0,.25,1.09,2.25,2.25,0,0,0,1,.77,13.28,13.28,0,0,0,2.1.71l3.49.91a18.25,18.25,0,0,1,1.79.47A8.21,8.21,0,0,1,521,128a6.82,6.82,0,0,1,1.95,2,5.64,5.64,0,0,1,.83,3.17A7,7,0,0,1,523.11,136Zm21.51-53.86h-6.89v18.75h-5.07V82.18h-6.9V77.93h18.86Zm22.31,18.75h-5.06V91h-9.32v9.92h-5.07v-23h5.07v8.86h9.32V77.91h5.06Zm25.69-6.72A11.14,11.14,0,0,1,590.4,98a10.13,10.13,0,0,1-3.55,2.53,12.8,12.8,0,0,1-9.53,0A10.17,10.17,0,0,1,573.76,98a11,11,0,0,1-2.22-3.78,13.78,13.78,0,0,1-.77-4.69,14.32,14.32,0,0,1,.77-4.79,11.44,11.44,0,0,1,2.22-3.84,10.3,10.3,0,0,1,3.56-2.58,12.67,12.67,0,0,1,9.53,0,10.26,10.26,0,0,1,3.55,2.58,11.56,11.56,0,0,1,2.22,3.85,14.28,14.28,0,0,1,.77,4.79A13.76,13.76,0,0,1,592.62,94.21Zm24.11-2c0,3.12-.86,5.44-2.61,7a10.65,10.65,0,0,1-7.21,2.27q-4.68,0-7.25-2.25c-1.7-1.51-2.56-3.83-2.56-7V77.91h5.07V92.23a10.32,10.32,0,0,0,.16,1.84,3.7,3.7,0,0,0,.67,1.59,3.84,3.84,0,0,0,1.44,1.13,5.81,5.81,0,0,0,2.47.44c1.79,0,3-.41,3.73-1.21a5.76,5.76,0,0,0,1-3.79V77.91h5.06Zm21.71-10h-6.9v18.76h-5.07V82.18h-6.9V77.94h18.87Z" style="fill:#fff"/><path d="M418.5,123.24a5.1,5.1,0,0,0-2-1.53,8.21,8.21,0,0,0-3.14-.52h-3.59V135.7h4.49a6.71,6.71,0,0,0,2.13-.36,4.76,4.76,0,0,0,1.83-1.18,5.94,5.94,0,0,0,1.28-2.15,9.22,9.22,0,0,0,.48-3.22,13.7,13.7,0,0,0-.33-3.14A6.45,6.45,0,0,0,418.5,123.24Z" style="fill:#fff"/><path d="M319.93,125.59a2.42,2.42,0,0,0,.87-2.09,2.76,2.76,0,0,0-.29-1.33,2.19,2.19,0,0,0-.77-.8,3.06,3.06,0,0,0-1.11-.4,6.91,6.91,0,0,0-1.3-.11H312.6v5.38h5.11A3.61,3.61,0,0,0,319.93,125.59Z" style="fill:#fff"/><path d="M345.61,123.05a5.56,5.56,0,0,0-1.93-1.77,5.92,5.92,0,0,0-2.9-.66,6,6,0,0,0-2.9.65,5.53,5.53,0,0,0-1.94,1.78,8,8,0,0,0-1.07,2.53,12.36,12.36,0,0,0-.34,2.93,11.6,11.6,0,0,0,.34,2.83,7.79,7.79,0,0,0,1.07,2.46,5.67,5.67,0,0,0,1.94,1.76,5.92,5.92,0,0,0,2.9.65,5.81,5.81,0,0,0,2.9-.65,5.63,5.63,0,0,0,1.93-1.76,7.38,7.38,0,0,0,1.08-2.46,12.09,12.09,0,0,0,.34-2.82,12.93,12.93,0,0,0-.34-2.94A7.66,7.66,0,0,0,345.61,123.05Z" style="fill:#fff"/><path d="M318.1,129.69h-5.5V136H318a6.64,6.64,0,0,0,1.42-.15,3.26,3.26,0,0,0,1.18-.48,2.33,2.33,0,0,0,.82-.91,3.14,3.14,0,0,0,.31-1.49,3,3,0,0,0-1-2.52A4.19,4.19,0,0,0,318.1,129.69Z" style="fill:#fff"/><polygon points="436.87 122.59 433.87 131.05 439.84 131.05 436.94 122.59 436.87 122.59" style="fill:#fff"/><path d="M586.91,84.06A5.41,5.41,0,0,0,585,82.28a6.7,6.7,0,0,0-5.8,0,5.41,5.41,0,0,0-1.93,1.78,7.51,7.51,0,0,0-1.08,2.52,12.45,12.45,0,0,0-.34,2.94,11.46,11.46,0,0,0,.34,2.82,7.38,7.38,0,0,0,1.08,2.46,5.54,5.54,0,0,0,1.93,1.76,6.7,6.7,0,0,0,5.8,0,5.54,5.54,0,0,0,1.93-1.76A7.38,7.38,0,0,0,588,92.34a12,12,0,0,0,.34-2.82,13,13,0,0,0-.34-2.94A7.51,7.51,0,0,0,586.91,84.06Z" style="fill:#fff"/><path d="M461.3,120.87h-5.53v6.47h5.53a3.84,3.84,0,0,0,2.6-.77,3.22,3.22,0,0,0,.87-2.52,3,3,0,0,0-.87-2.42A3.84,3.84,0,0,0,461.3,120.87Z" style="fill:#fff"/></svg>