<svg xmlns="http://www.w3.org/2000/svg" viewBox="0 0 250 218.56">
  <g>
    <path d="M110.09,89.52l-.67-.41a2.77,2.77,0,0,1-1.36.88,7.69,7.69,0,0,1-2.83.37h-5c.06-.57.8-8.41.83-8.9h3.26a4.15,4.15,0,0,1,1.82.25,1.29,1.29,0,0,1,.69.85l.77-.1.41-4.17-.78-.11a1.41,1.41,0,0,1-.81.81,3.49,3.49,0,0,1-1.89.29h-3.25c0-.55.61-6.55.66-7h4.89a5,5,0,0,1,2,.34c.3.15.44.37.6.94l.79-.08.33-3.37H97l-.31.75c1,.45,1.26.94,1.07,2.86l-.52,5.63H88.64l-.18.8a1.71,1.71,0,0,1,1.15,1.83,3.48,3.48,0,0,1,0,.55s-.55,6.32-.63,7.12l-.17.1C86.13,91,85.25,91.2,83.44,91.2a8,8,0,0,1-6-2.43c-1.6-1.75-2.25-5-2-8,.53-5.57,4.54-9.81,9.32-9.81A7.31,7.31,0,0,1,92,77.14h.85l.42-6L93.09,71a15.45,15.45,0,0,0-8.36-2.42c-7.33,0-13.18,5.14-13.84,12.19-.33,3.44.58,7.09,2.58,9.28a11.94,11.94,0,0,0,9,3.53,20.66,20.66,0,0,0,10.45-3l.4-.26L93.1,90c-.16-.2-.47-.51-.46-.81,0-.1,0-.22,0-.34l.56-6.4c0-1.11,2.79-1,3.85-1C97,82,96.34,89,96.34,89c-.18,1.92-.52,2.37-1.6,2.81l.15.75h14.19Z" fill="#fff"/>
    <path d="M87.82,114.94a6.28,6.28,0,0,1-.12.83c-.23,1.2-.57,1.36-1.23,1.52l0,.78h8.89a10.38,10.38,0,0,0,4.61-.77,7.33,7.33,0,0,0,2.46-1.66,6.15,6.15,0,0,0,1.81-3.77c0-.21,0-.39,0-.59a5.57,5.57,0,0,0-4.12-5.48,6.42,6.42,0,0,0-.84-.22,6.83,6.83,0,0,0,1.37-.67,5.71,5.71,0,0,0,2.69-4.25c0-.13,0-.26,0-.4,0-2.05-1.87-4.13-4.38-4.66a14.44,14.44,0,0,0-3.1-.26H88.6l-.09.72c.61.17.95.45.95,1.64a8.36,8.36,0,0,1,0,.94Zm5.42-17.59h2.38a3.84,3.84,0,0,1,2.91,1.17,3.31,3.31,0,0,1,.85,2.25,2.31,2.31,0,0,1,0,.37,4.17,4.17,0,0,1-4.47,3.64H92.54C92.58,104.3,93.2,97.76,93.24,97.35Zm-.59,9.41h2.48a5.74,5.74,0,0,1,4.38,1.61,3.87,3.87,0,0,1,1,2.67c0,.18,0,.35,0,.51C100.2,114.31,98,116,94.79,116h-3C91.83,115.52,92.61,107.18,92.65,106.76Z" fill="#fff"/>
    <path d="M197.68,121.73a.36.36,0,0,1,.23.38l-.65,6.68a.49.49,0,0,1-.32.41l-.43.24H202l.38-1.38-.22-.12c-.44.63-.81.64-1.71.66h-.13a10,10,0,0,1-1.32,0c0-.22.28-2.89.3-3.09h1.6a.34.34,0,0,1,.25.23h.25l.11-1.21-.23-.06a.55.55,0,0,1-.33.24h-1.57c0-.23.21-2.16.23-2.35h1.79c.42,0,.6.11.76.35l.2.33.1-1.51h-4.7Z" fill="#fff"/>
    <path d="M111.89,107.71h1.17c1,0,2.67,0,3.77,2.81l1.3,4.11c.86,2.62,1.4,3.38,3.18,3.38h3.14l.2-.8a2.08,2.08,0,0,1-1.32-.71,9.87,9.87,0,0,1-1.25-2.79l-.48-1.51-.64-1.93a5.66,5.66,0,0,0-3.71-3.57,6,6,0,0,0,1.55-.46,5.75,5.75,0,0,0,3.63-4.9,5.25,5.25,0,0,0,0-.56,4.86,4.86,0,0,0-1.79-3.87c-1.41-1.09-2.73-1.42-5.62-1.42h-7.28l-.15.78c1,.37,1.26.78,1.06,2.79l-1.47,15.44c-.16,2-.77,2.42-1.57,2.72l.13.81h6.45l.14-.81c-.45-.15-.73-.29-.85-.53a3.28,3.28,0,0,1-.28-1.47,7.09,7.09,0,0,1,0-.79Zm1-10.17h1.6a4,4,0,0,1,3,1,3.3,3.3,0,0,1,.76,2.28,5.55,5.55,0,0,1,0,.56c-.39,4.11-4.19,4.32-5,4.32h-1.12C112.14,105.2,112.83,98,112.88,97.54Z" fill="#fff"/>
    <path d="M152.94,122.22a2.27,2.27,0,0,1,2.27,1.65l0,.1.11,0c.12,0,.12,0,.16-1.87V122l-.08,0a5.73,5.73,0,0,0-2.65-.61,4.67,4.67,0,0,0-4.88,4.12,3.62,3.62,0,0,0,.88,2.81,4.18,4.18,0,0,0,3.09,1.26,6.29,6.29,0,0,0,3-.73l0,0v-.06c.31-1.72.31-1.72.18-1.76l-.1,0,0,.1a3,3,0,0,1-2.63,1.66,2.49,2.49,0,0,1-2-.78,3.28,3.28,0,0,1-.69-2.55A3.21,3.21,0,0,1,152.94,122.22Z" fill="#fff"/>
    <path d="M166.93,129.19l.06.25h4.85l.42-1.38-.23-.12c-.39.6-.71.61-1.95.66l-1,0h-.1c0-.25.63-6.42.63-6.42a.46.46,0,0,1,.26-.4l-.05-.24h-2.06l-.05.24a.34.34,0,0,1,.2.38l-.64,6.68A.47.47,0,0,1,166.93,129.19Z" fill="#fff"/>
    <path d="M135.19,118.36c7,0,12.74-5,13.35-11.5A10.3,10.3,0,0,0,146,98.77a11.48,11.48,0,0,0-8.66-3.59c-6.81,0-12.64,5.09-13.25,11.59a10.29,10.29,0,0,0,2.53,8A11.44,11.44,0,0,0,135.19,118.36Zm-6.67-11.67c.5-5.44,4-9.3,8.58-9.3A6.52,6.52,0,0,1,142,99.55a9.34,9.34,0,0,1,2,7.27c-.51,5.39-4.15,9.36-8.66,9.36a6.37,6.37,0,0,1-4.86-2.11A9.47,9.47,0,0,1,128.52,106.69Z" fill="#fff"/>
    <path d="M194.13,97.05a4.37,4.37,0,0,1,.17,1.52c0,.24,0,.49,0,.73,0,0-.74,7.94-1,10.64-.84-1.12-11.16-14.44-11.16-14.44H171l-.19,1.07c.84.17,1,.34.95.82,0,.22,0,.22-.29.81,0,0-4.15,9-5.6,12.16-.45-1.49-1.81-5.75-1.89-6l2.81-5.53a4.43,4.43,0,0,1,2.12-2.29l-.1-1h-12l-.37,1a3.36,3.36,0,0,1,1.66,2.32s1.91,6.36,2.22,7.37c-.94,1.81-1.82,3.42-2.48,4.73-.51-1.6-3.55-11.32-3.55-11.32a22.48,22.48,0,0,1-.67-2.26c0-.29.09-.62.81-.78l-.05-1h-5.95l-.36.92.07.05a3.82,3.82,0,0,1,1.68,2.38l6.28,19.83s4.49-7.76,5.27-9.3c.6,1.56,3.22,9.3,3.22,9.3l9-19.51c.85-1.85,1.72-2.62,2.66-2.62s2.08.65,1.88,2.86l-1.41,14.79c-.18,2-.39,2.47-1.69,3l.15.77,4.67,0,.16-.77c-.54-.25-.73-.4-.89-.69a2.14,2.14,0,0,1-.17-1,9,9,0,0,1,.07-1.06c.7-7.23,1.16-12.4,1.34-14.21,1,1.34,8.05,10.53,14.25,18.53l1.87-19.52c.22-2.23.55-2.64,1.79-3l-.1-.82h-4.93l-.15.77C193.82,96.55,194,96.75,194.13,97.05Zm-32,.73c-.13-.52,0-1.26,1.21-1.26s1.48.54,1.2,1.18-1.51,3.21-1.51,3.21S162.29,98.3,162.15,97.78Z" fill="#fff"/>
    <path d="M193.33,126.05a.35.35,0,0,1,.19.33v.07s-.18,1.76-.19,1.9a3,3,0,0,1-1.36.33,2.55,2.55,0,0,1-2-.78,3.34,3.34,0,0,1-.67-2.55,3.22,3.22,0,0,1,3.22-3.13,2.33,2.33,0,0,1,2.26,1.69l.24,0,.09-1.88-.08,0a6.09,6.09,0,0,0-2.65-.61,4.71,4.71,0,0,0-4.9,4.12,3.62,3.62,0,0,0,.87,2.79,4.25,4.25,0,0,0,3.14,1.28,9.34,9.34,0,0,0,3.6-.84l.15-.08-.14-.13a.5.5,0,0,1-.08-.34l.16-1.68a.47.47,0,0,1,.29-.42l.41-.24h-3Z" fill="#fff"/>
    <path d="M110.61,81.35a10.34,10.34,0,0,0,2.52,8.06,11.48,11.48,0,0,0,8.6,3.54c7,0,12.75-5,13.37-11.5a10.38,10.38,0,0,0-2.58-8.1,11.5,11.5,0,0,0-8.68-3.58C117,69.77,111.22,74.86,110.61,81.35Zm4.45-.08c.51-5.43,4-9.29,8.58-9.29a6.51,6.51,0,0,1,4.93,2.16,9.33,9.33,0,0,1,2,7.27c-.5,5.39-4.14,9.37-8.65,9.37A6.43,6.43,0,0,1,117,88.65C115.47,86.94,114.77,84.32,115.06,81.27Z" fill="#fff"/>
    <path d="M176.87,128.6l-1.05,0h-.08c0-.26.62-6.43.62-6.43a.48.48,0,0,1,.28-.4l-.06-.24h-2.06l-.06.24a.33.33,0,0,1,.22.38l-.65,6.68a.47.47,0,0,1-.3.4l.06.25h4.87l.39-1.38-.22-.12C178.44,128.54,178.12,128.56,176.87,128.6Z" fill="#fff"/>
    <path d="M176.6,139.56l-61.53-18.89h-2.26l48.87,18.55c-46.85,33.36-122-11.49-106-58.62-11.71,43.3,55.24,77.8,90.2,57.07l-35.34-17h-3l23.58,15.68C99.92,145.6,59.4,117.84,59.4,88.88,59.4,67,83.82,53.36,122.12,67.3c-36.67-16.14-74.27-4.71-74.56,27C47.08,148.46,131.29,181.47,176.6,139.56Z" fill="#fff"/>
    <path d="M165.13,93a19.6,19.6,0,0,0,10-2.9l.39-.26-.22-.26c-.15-.18-.44-.48-.43-.77,0-.1,0-.2,0-.32s.51-5.94.51-6a2.28,2.28,0,0,1,1.44-2.23l-.17-.74H171l-.16.76a1.62,1.62,0,0,1,1.07,1.75c0,.16,0,.33,0,.53,0,0-.51,5.85-.58,6.62l-.16.09c-2.52,1.22-3.36,1.43-5.08,1.43a7.62,7.62,0,0,1-5.77-2.3c-1.52-1.68-2.13-4.13-1.86-7,.5-5.31,4.31-9.35,8.88-9.35a6.86,6.86,0,0,1,6.95,6.11h.81l.38-5.91-.2-.14a14.82,14.82,0,0,0-8-2.3,12.86,12.86,0,0,0-13.18,11.6,10.4,10.4,0,0,0,2.46,8.24A11.3,11.3,0,0,0,165.13,93Z" fill="#fff"/>
    <path d="M156.88,125.38a3.66,3.66,0,0,0,.83,2.86,4.17,4.17,0,0,0,3,1.32,4.62,4.62,0,0,0,4.78-4,3.58,3.58,0,0,0-.83-2.84,4.14,4.14,0,0,0-3-1.31A4.65,4.65,0,0,0,156.88,125.38Zm6.8.17c-.18,1.88-1.27,3.1-2.77,3.1a2,2,0,0,1-1.52-.67,3,3,0,0,1-.71-2.13c0-.18,0-.36,0-.57.2-1.87,1.31-3.08,2.82-3.08a2,2,0,0,1,1.52.65A3.48,3.48,0,0,1,163.68,125.55Z" fill="#fff"/>
    <path d="M185,122.32c.41,0,.59.11.74.35l.2.34.1-1.52h-4.69l-.05.24a.36.36,0,0,1,.22.38l-.65,6.68c0,.2-.13.3-.32.41l-.42.24h5.46l.38-1.38-.22-.12c-.43.63-.82.64-1.7.66h-.13a10.14,10.14,0,0,1-1.33,0c0-.22.28-2.89.3-3.09h1.6c.09,0,.21.12.24.23H185l.12-1.21-.25-.06a.53.53,0,0,1-.32.24H183c0-.23.2-2.16.22-2.35Z" fill="#fff"/>
    <path d="M191.28,92.56l1-3-.67-.41a2.75,2.75,0,0,1-1.35.88,7.85,7.85,0,0,1-2.84.37h-5c.05-.57.78-8.41.82-8.9h3.27a4,4,0,0,1,1.8.25,1.27,1.27,0,0,1,.7.85l.77-.1.41-4.17-.79-.11a1.34,1.34,0,0,1-.8.81,3.43,3.43,0,0,1-1.88.29H183.5c.06-.55.63-6.55.67-7h4.89a4.84,4.84,0,0,1,1.95.34c.3.15.45.37.61.94l.8-.08.31-3.37H179.24l-.3.75c1,.45,1.26.94,1.07,2.86l-.56,5.76-.18,1.91c-.05.58-.71,7.66-.71,7.66-.2,1.92-.54,2.37-1.63,2.81l.15.75Z" fill="#fff"/>
    <path d="M142.09,92.63l.14-.8c-.46-.15-.73-.29-.84-.54a3.18,3.18,0,0,1-.29-1.47c0-.24,0-.51,0-.78l.62-6.71h1.18c1,0,2.65,0,3.77,2.82l1.3,4.1c.85,2.61,1.4,3.37,3.16,3.37h3.15l.21-.78a2.13,2.13,0,0,1-1.33-.73A9.66,9.66,0,0,1,152,88.32l-.47-1.51-.65-1.93a5.66,5.66,0,0,0-3.71-3.57,6.28,6.28,0,0,0,1.55-.46A5.75,5.75,0,0,0,152.3,76c0-.19,0-.38,0-.56a4.84,4.84,0,0,0-1.78-3.87c-1.41-1.1-2.72-1.42-5.62-1.42h-7.28l-.15.77c.95.39,1.26.79,1.06,2.8l-1.47,15.45c-.16,2-.77,2.41-1.58,2.71l.13.78Zm.66-20.48h1.6a4,4,0,0,1,3,1,3.23,3.23,0,0,1,.76,2.27,5.59,5.59,0,0,1,0,.57c-.39,4.11-4.18,4.32-5,4.32H142C142,79.81,142.7,72.62,142.75,72.15Z" fill="#fff"/>
  </g>
</svg>
