<svg xmlns="http://www.w3.org/2000/svg" viewBox="0 0 250 218.56">
  <g>
    <rect x="46.38" y="76.09" width="16.09" height="66.38" fill="#fff"/>
    <polygon points="66.94 95.09 83.26 95.09 90.86 125.93 99.35 95.09 111.64 95.09 119.47 125.93 129.08 95.09 142.71 95.09 126.84 142.47 112.31 142.47 104.83 109.28 97.12 140.68 83.48 140.68 66.94 95.09" fill="#fff"/>
    <path d="M203.55,122.18c-1.34-15.2-14.3-16.31-14.3-16.31s10.95-2,11.17-13.41-7.6-16.1-16.76-16.32-35.54,0-35.54,0v66.38h37.33S204.89,137.38,203.55,122.18ZM162.38,86.6h12.29s11,0,11,8.49c0,8.32-9.19,7.82-9.19,7.82H162.38Zm16.7,44.08h-16.7V111.33H177s12.63-.72,12.63,10.24C189.59,130.68,179.08,130.68,179.08,130.68Z" fill="#fff"/>
  </g>
</svg>
